<svg width="44" height="54" viewBox="0 0 44 54" fill="none" xmlns="http://www.w3.org/2000/svg">
<g clip-path="url(#clip0_304_571)">
<path d="M22.0004 28.9035C29.3076 28.9035 35.2313 22.4333 35.2313 14.4518C35.2313 6.47028 29.3076 0 22.0004 0C14.6932 0 8.76953 6.47028 8.76953 14.4518C8.76953 22.4333 14.6932 28.9035 22.0004 28.9035Z" fill="#1D232D"/>
<path d="M44 47.5441C44 51.7963 37.4725 53.261 22 53.261C6.52747 53.261 0 51.7956 0 47.5441C0 38.2276 4.89426 31.6243 14.39 28.5996C16.545 29.9212 19.1137 30.6754 22 30.6754C24.8863 30.6754 27.455 29.9212 29.61 28.5996C39.1057 31.6236 44 38.227 44 47.5441Z" fill="#1D232D"/>
</g>
<defs>
<clipPath id="clip0_304_571">
<rect width="44" height="53.26" fill="white"/>
</clipPath>
</defs>
</svg>
