<svg width="498" height="468" viewBox="0 0 498 468" fill="none" xmlns="http://www.w3.org/2000/svg">
<g clip-path="url(#clip0_545_13)">
<path d="M0 11.8102C3.90407 2.71515 10.9169 -0.191213 20.5614 -0.00323932C41.788 0.430546 63.029 0.126896 84.27 0.126896C96.1702 0.126896 101.043 3.85745 104.065 15.2082C107.767 29.1327 111.642 42.9993 115.112 56.9817C116.139 61.1026 117.686 62.5052 122.183 62.5052C240.519 62.3462 358.871 62.3751 477.207 62.3751C478.827 62.3751 480.446 62.3462 482.066 62.3895C492.592 62.7366 499.562 71.0363 497.696 81.346C487.502 137.579 477.251 193.798 466.97 250.016C465.22 259.603 459.668 264.259 449.965 264.75C375.181 268.539 300.396 272.356 225.612 276.144C210.227 276.925 194.856 277.735 179.471 278.284C175.625 278.415 174.295 279.166 175.567 283.302C177.939 291.038 180.05 298.86 181.814 306.755C182.638 310.442 184.142 311.512 187.945 311.498C241.604 311.353 295.263 311.397 348.922 311.397C372.434 311.397 395.93 311.31 419.441 311.44C431.11 311.498 438.644 321.865 434.754 332.291C432.513 338.291 427.973 341.617 421.654 342.412C419.89 342.629 418.097 342.528 416.304 342.528C336.053 342.528 255.818 342.528 175.567 342.528C162.944 342.528 158.317 339.072 155.093 327.042C133.432 246.069 111.786 165.081 90.155 84.0933C85.8606 67.9854 81.5083 51.9064 77.4451 35.7407C76.5776 32.2848 75.2328 31.1281 71.6035 31.1715C54.5846 31.3739 37.5513 30.9257 20.547 31.4028C10.888 31.6775 3.87515 28.6989 0 19.5894L0 11.8102ZM186.773 171.356C186.773 181.073 186.745 190.79 186.773 200.507C186.817 210.903 193.049 217.93 202.216 218.003C211.413 218.075 217.861 211.048 217.876 200.738C217.919 181.145 217.934 161.538 217.876 141.946C217.847 131.636 211.384 124.609 202.187 124.696C193.034 124.782 186.817 131.81 186.773 142.206C186.73 151.923 186.773 161.64 186.773 171.356ZM311.284 171.848C311.284 161.64 311.357 151.446 311.255 141.237C311.154 131.622 304.676 124.768 295.842 124.696C286.819 124.623 280.211 131.578 280.167 141.454C280.095 161.379 280.095 181.305 280.167 201.215C280.196 211.106 286.79 218.061 295.813 218.003C304.821 217.945 311.183 211.004 311.255 200.998C311.328 191.282 311.27 181.565 311.255 171.848H311.284ZM404.664 171.472C404.664 161.437 404.736 151.388 404.649 141.353C404.563 131.506 397.897 124.551 388.86 124.696C380.039 124.826 373.605 131.708 373.561 141.338C373.489 161.264 373.489 181.189 373.561 201.1C373.59 211.033 380.083 217.988 389.091 218.003C398.114 218.003 404.577 211.062 404.649 201.114C404.722 191.238 404.664 181.348 404.664 171.472Z" fill="black"/>
<path d="M155.674 420.578C155.442 395.188 176.683 373.816 202.248 373.715C227.711 373.614 249.024 394.913 248.995 420.405C248.952 445.752 228.174 466.675 202.667 467.022C177.32 467.369 155.905 446.201 155.674 420.578Z" fill="black"/>
<path d="M388.384 467.011C362.458 466.245 341.608 444.671 342.475 419.526C343.372 393.542 364.989 372.749 390.076 373.733C415.915 374.745 436.39 395.914 435.768 420.957C435.117 446.797 413.573 467.748 388.399 466.997L388.384 467.011Z" fill="black"/>
</g>
<defs>
<clipPath id="clip0_545_13">
<rect width="498" height="467.028" fill="white"/>
</clipPath>
</defs>
</svg>
