<svg width="54" height="53" viewBox="0 0 54 53" fill="none" xmlns="http://www.w3.org/2000/svg">
<path d="M53.7956 27.448C53.8741 25.9879 53.4123 24.6708 52.5759 23.6742C53.5238 22.6062 54.0622 21.1827 53.9943 19.7941C53.9037 18.193 53.1213 16.8392 51.9574 15.9855C52.8338 14.9175 53.2991 13.5289 53.1963 12.1402C53.1701 11.9625 53.144 11.7848 53.1178 11.6054C52.9018 10.3596 52.2466 9.29161 51.2866 8.57902C51.3266 8.50758 51.3632 8.47274 51.4033 8.4013C52.2797 7.33328 52.7084 5.98127 52.6021 4.62751C52.4244 1.99318 50.2533 0 47.5821 0H21.3116C18.961 0 16.9346 1.92174 16.8091 4.27209L16.7987 4.4498V8.4013L16.8056 11.6054L16.7621 25.6308C16.7516 27.8382 16.9555 30.6503 18.9314 32.9641C19.5325 33.6766 20.1459 34.2098 20.8028 34.5652L20.9073 34.6366C20.9404 34.6715 21.0101 34.7081 21.0781 34.7429C23.1551 35.8475 24.8173 37.3407 26.0405 39.1213C27.4902 41.2939 28.2185 42.9665 28.3213 44.39L28.2604 48.8049C28.2377 49.9078 28.6454 50.9061 29.3529 51.6536C30.062 52.3662 31.0361 52.793 32.139 52.793H32.4614C36.3958 52.4724 39.0774 48.2369 39.7221 44.214C39.9329 42.9317 39.9538 41.9002 39.8022 40.7608C39.6889 39.5516 39.3649 38.3042 38.8596 37.1299L37.6538 34.3892L37.6224 34.3178L37.6259 34.2464C37.5597 34.1401 37.497 33.9972 37.4656 33.8892H47.7912C50.9241 33.8892 53.5866 31.3611 53.7556 28.2285L53.7974 27.4445L53.7956 27.448Z" fill="#1D232D"/>
<path d="M10.9494 0.00195312H3.74796C1.67802 0.00195312 0 1.67984 0 3.74961V28.4674C0 30.5372 1.67802 32.2151 3.74796 32.2151H10.9494C13.0194 32.2151 14.6974 30.5372 14.6974 28.4674V3.74961C14.6974 1.67984 13.0194 0.00195312 10.9494 0.00195312Z" fill="#1D232D"/>
</svg>
