<svg width="31" height="31" viewBox="0 0 31 31" fill="none" xmlns="http://www.w3.org/2000/svg">
<g clip-path="url(#clip0_306_699)">
<path d="M29.3092 27.4076V11.1754L25.6721 14.8124V27.3638H3.63675V5.32845H16.1323L19.7691 1.69141H3.59296C2.63337 1.69141 1.73109 2.06525 1.05247 2.74387C0.373845 3.42249 0 4.32478 0 5.28437V27.4076C0 28.3672 0.373844 29.2698 1.05217 29.9481C1.7305 30.6264 2.63308 31.0006 3.59267 31.0006H25.7162C27.6971 31.0006 29.3092 29.3888 29.3092 27.4076Z" fill="#333333"/>
<path d="M28.5046 6.60025L30.7027 4.40215C31.0974 4.00744 31.0974 3.36732 30.7027 2.97261L28.0261 0.296034C27.6314 -0.0986779 26.9912 -0.0986779 26.5965 0.296034L24.3984 2.49413L28.5046 6.60025Z" fill="#333333"/>
<path d="M23.3044 3.58818L9.37161 17.5209C9.2082 17.6844 9.09769 17.893 9.05419 18.1196L8.23626 22.3906C8.19423 22.6108 8.38733 22.8041 8.60775 22.7621L12.8788 21.9442C13.1056 21.9007 13.3143 21.7902 13.4774 21.6268L27.4102 7.69401L23.3041 3.58789L23.3044 3.58818Z" fill="#333333"/>
</g>
<defs>
<clipPath id="clip0_306_699">
<rect width="31" height="31" fill="white"/>
</clipPath>
</defs>
</svg>
