<svg width="66" height="45" viewBox="0 0 66 45" fill="none" xmlns="http://www.w3.org/2000/svg">
<g clip-path="url(#clip0_304_531)">
<path d="M41.6677 21.5274C51.3295 14.1372 60.0532 6.72545 64.1896 3.14697C64.7043 2.7021 65.5057 3.0432 65.5396 3.72232C65.7328 7.50114 66.0009 14.1783 66.0009 22.1757C66.0009 30.1731 65.7328 36.8502 65.5396 40.6291C65.5047 41.3082 64.7033 41.6503 64.1896 41.2044C60.0491 37.6218 51.3141 30.1988 41.6687 22.824C41.2413 22.4973 41.2413 21.8531 41.6687 21.5264L41.6677 21.5274ZM62.6639 2.28086C57.3018 6.90833 45.4188 16.9431 33.4792 25.562C33.1936 25.7685 32.8083 25.7685 32.5227 25.562C20.5831 16.9431 8.70003 6.9073 3.33796 2.28086C2.78419 1.80311 3.0883 0.895904 3.81777 0.847616C8.95278 0.50857 18.9916 0 33.0004 0C47.0092 0 57.0491 0.508569 62.1831 0.846588C62.9125 0.894877 63.2166 1.80311 62.6629 2.27983L62.6639 2.28086ZM1.81328 41.2054C1.29855 41.6503 0.497166 41.3092 0.463262 40.6301C0.270108 36.8513 0.00195312 30.1741 0.00195312 22.1767C0.00195312 14.1793 0.269081 7.50114 0.462234 3.72232C0.497166 3.0432 1.29855 2.70107 1.81226 3.14697C5.94862 6.72545 14.6724 14.1372 24.3342 21.5274C24.7616 21.8541 24.7616 22.4983 24.3342 22.825C14.6878 30.2008 5.95273 37.6228 1.81328 41.2054ZM3.33796 42.0715C7.73016 38.2804 16.496 30.8614 26.0623 23.5853C26.353 23.3644 26.7548 23.3634 27.0476 23.5822C28.8589 24.9405 30.6908 26.2864 32.5206 27.5953C32.6644 27.698 32.8329 27.7494 33.0014 27.7494C33.1699 27.7494 33.3384 27.698 33.4823 27.5953C35.3121 26.2864 37.144 24.9415 38.9553 23.5822C39.2471 23.3634 39.6498 23.3634 39.9406 23.5853C49.5068 30.8625 58.2727 38.2814 62.6649 42.0715C63.2187 42.5493 62.9146 43.4575 62.1851 43.5048C57.0511 43.8438 47.0112 44.3514 33.0014 44.3514C18.9916 44.3514 8.95175 43.8428 3.81777 43.5048C3.0883 43.4565 2.78522 42.5483 3.33796 42.0715Z" fill="#1D232D"/>
</g>
<defs>
<clipPath id="clip0_304_531">
<rect width="66" height="44.3524" fill="white"/>
</clipPath>
</defs>
</svg>
