<svg width="63" height="63" viewBox="0 0 63 63" fill="none" xmlns="http://www.w3.org/2000/svg">
<g clip-path="url(#clip0_304_540)">
<path d="M63 31.5008C63 48.8985 48.8969 63.0016 31.4992 63.0016C14.1031 63 0 48.8969 0 31.5008C0 14.1031 14.1031 0 31.5008 0C48.8985 0 63.0016 14.1031 63.0016 31.5008H63Z" fill="#1D232D"/>
<path d="M40.8321 29.057L40.3073 33.2713C40.2185 33.9752 39.6224 34.5048 38.9152 34.5048H32.0896V52.1245C31.3698 52.1895 30.6405 52.2228 29.9032 52.2228C28.2543 52.2228 26.645 52.0579 25.0896 51.744V34.5048H19.84C19.358 34.5048 18.9648 34.11 18.9648 33.6264V28.353C18.9648 27.8694 19.358 27.4747 19.84 27.4747H25.0896V19.5662C25.0896 14.7129 29.0074 10.7793 33.8416 10.7793H39.9664C40.4484 10.7793 40.8416 11.1741 40.8416 11.6577V16.9311C40.8416 17.4146 40.4484 17.8094 39.9664 17.8094H35.5904C33.6577 17.8094 32.0912 19.3822 32.0912 21.3245V27.4762H39.4416C40.2851 27.4762 40.9368 28.2183 40.8337 29.0586L40.8321 29.057Z" fill="white"/>
</g>
<defs>
<clipPath id="clip0_304_540">
<rect width="63" height="63" fill="white"/>
</clipPath>
</defs>
</svg>
