<svg width="63" height="63" viewBox="0 0 63 63" fill="none" xmlns="http://www.w3.org/2000/svg">
<g clip-path="url(#clip0_304_544)">
<path d="M63 31.5008C63 48.8985 48.8969 63.0016 31.4992 63.0016C14.1031 63 0 48.8969 0 31.5008C0 14.1031 14.1031 0 31.5008 0C48.8985 0 63.0016 14.1031 63.0016 31.5008H63Z" fill="#1D232D"/>
<path d="M40.0466 14.9766H22.9532C18.5487 14.9766 14.9766 18.5487 14.9766 22.9532V40.0466C14.9766 44.4511 18.5487 48.0232 22.9532 48.0232H40.0466C44.4511 48.0232 48.0232 44.4511 48.0232 40.0466V22.9532C48.0232 18.5487 44.4511 14.9766 40.0466 14.9766ZM45.1741 39.4758C45.1741 42.6214 42.6214 45.1741 39.4758 45.1741H23.5224C20.3768 45.1741 17.8241 42.6214 17.8241 39.4758V23.5224C17.8241 20.3768 20.3768 17.8241 23.5224 17.8241H39.4758C42.6214 17.8241 45.1741 20.3768 45.1741 23.5224V39.4758Z" fill="white"/>
<path d="M31.5166 22.9531C26.7997 22.9531 22.9707 26.7821 22.9707 31.499C22.9707 36.2159 26.7997 40.0449 31.5166 40.0449C36.2334 40.0449 40.0624 36.2159 40.0624 31.499C40.0624 26.7821 36.2334 22.9531 31.5166 22.9531ZM31.5166 37.1973C28.3773 37.1973 25.8183 34.6383 25.8183 31.499C25.8183 28.3597 28.3773 25.8007 31.5166 25.8007C34.6559 25.8007 37.2149 28.3597 37.2149 31.499C37.2149 34.6383 34.6559 37.1973 31.5166 37.1973Z" fill="white"/>
<path d="M40.633 24.0922C41.577 24.0922 42.3422 23.327 42.3422 22.383C42.3422 21.4391 41.577 20.6738 40.633 20.6738C39.6891 20.6738 38.9238 21.4391 38.9238 22.383C38.9238 23.327 39.6891 24.0922 40.633 24.0922Z" fill="white"/>
</g>
<defs>
<clipPath id="clip0_304_544">
<rect width="63" height="63" fill="white"/>
</clipPath>
</defs>
</svg>
