<svg width="63" height="53" viewBox="0 0 63 53" fill="none" xmlns="http://www.w3.org/2000/svg">
<g clip-path="url(#clip0_360_257)">
<path d="M62.8016 20.4688C63.652 14.923 61.7762 9.79024 57.2626 5.17844C53.8791 1.84252 49.4097 0 44.653 0C39.8963 0 35.4268 1.84252 32.0673 5.17844L31.5004 5.74144L30.9334 5.17844C27.5739 1.84252 23.1026 0 18.3478 0C13.5929 0 9.09952 1.84252 5.74187 5.19855C1.22636 9.79024 -0.651272 14.923 0.199184 20.4688C2.75239 37.4062 29.7553 52.2195 30.9113 52.8483C31.0844 52.936 31.3034 53 31.5004 53C31.6973 53 31.9146 52.936 32.0894 52.8483C33.2455 52.2195 60.2484 37.4062 62.7997 20.4688H62.8016Z" fill="#1D232D"/>
</g>
<defs>
<clipPath id="clip0_360_257">
<rect width="63" height="53" fill="white"/>
</clipPath>
</defs>
</svg>
