<svg width="63" height="63" viewBox="0 0 63 63" fill="none" xmlns="http://www.w3.org/2000/svg">
<g clip-path="url(#clip0_304_557)">
<path d="M63 31.5008C63 48.8985 48.8969 63.0016 31.4992 63.0016C14.1031 63 0 48.8969 0 31.5008C0 14.1031 14.1031 0 31.5008 0C48.8985 0 63.0016 14.1031 63.0016 31.5008H63Z" fill="#1D232D"/>
<path d="M20.3444 23.0795C22.5852 23.0795 24.4017 21.2629 24.4017 19.0221C24.4017 16.7814 22.5852 14.9648 20.3444 14.9648C18.1036 14.9648 16.2871 16.7814 16.2871 19.0221C16.2871 21.2629 18.1036 23.0795 20.3444 23.0795Z" fill="white"/>
<path d="M23.4222 25.7852H17.2657C17.0985 25.7852 16.9629 25.9207 16.9629 26.088V45.7673C16.9629 45.9345 17.0985 46.0701 17.2657 46.0701H23.4222C23.5895 46.0701 23.7251 45.9345 23.7251 45.7673V26.088C23.7251 25.9207 23.5895 25.7852 23.4222 25.7852Z" fill="white"/>
<path d="M46.7166 33.222V44.7169C46.7166 45.4605 46.1077 46.0694 45.3641 46.0694H41.3068C40.5632 46.0694 39.9544 45.4605 39.9544 44.7169V35.2499C39.9544 33.3838 38.4402 31.8696 36.5741 31.8696C34.708 31.8696 33.1938 33.3838 33.1938 35.2499V44.7169C33.1938 45.4605 32.585 46.0694 31.8414 46.0694H27.7841C27.0405 46.0694 26.4316 45.4605 26.4316 44.7169V27.1353C26.4316 26.3917 27.0405 25.7828 27.7841 25.7828H31.8414C32.585 25.7828 33.1938 26.3917 33.1938 27.1353V28.001C34.5463 26.249 36.785 25.1074 39.279 25.1074C43.0113 25.1074 46.7166 27.8123 46.7166 33.222Z" fill="white"/>
</g>
<defs>
<clipPath id="clip0_304_557">
<rect width="63" height="63" fill="white"/>
</clipPath>
</defs>
</svg>
