<svg width="43" height="56" viewBox="0 0 43 56" fill="none" xmlns="http://www.w3.org/2000/svg">
<g clip-path="url(#clip0_304_537)">
<path d="M36.7034 6.29777H36.7023C32.5045 2.09887 27.0026 0 21.5006 0C15.9987 0 10.4944 2.10002 6.29782 6.29777C-1.37743 13.9719 -2.12859 26.1632 4.54705 34.7213L19.7327 54.1951C20.6304 55.3448 22.3697 55.3448 23.2663 54.1951L38.4531 34.7213C45.1287 26.1632 44.3776 13.9719 36.7034 6.29777ZM21.5006 30.0129C16.7716 30.0129 12.9368 26.1781 12.9368 21.449C12.9368 16.72 16.7716 12.8864 21.5006 12.8864C26.2297 12.8864 30.0633 16.72 30.0633 21.449C30.0633 26.1781 26.2297 30.0129 21.5006 30.0129Z" fill="#1D232D"/>
</g>
<defs>
<clipPath id="clip0_304_537">
<rect width="43" height="55.0574" fill="white"/>
</clipPath>
</defs>
</svg>
