<svg width="61" height="60" viewBox="0 0 61 60" fill="none" xmlns="http://www.w3.org/2000/svg">
<path fill-rule="evenodd" clip-rule="evenodd" d="M20.9439 22.5L11 17.1538L18.3292 5.34618L28.2789 10.6831L28.2845 0H42.9431L42.9487 10.6831L52.8983 5.34618L60.2276 17.1538L50.2836 22.5L60.2276 27.8462L52.8983 39.6538L42.9487 34.3169L42.9431 45H28.2845L28.2789 34.3169L18.3292 39.6538L11 27.8462L20.9439 22.5Z" fill="#2EA14E"/>
<path fill-rule="evenodd" clip-rule="evenodd" d="M9.94388 37.5L0 32.1538L7.32921 20.3462L17.2789 25.6831L17.2845 15H31.9431L31.9487 25.6831L41.8983 20.3462L49.2276 32.1538L39.2836 37.5L49.2276 42.8462L41.8983 54.6538L31.9487 49.3169L31.9431 60H17.2845L17.2789 49.3169L7.32921 54.6538L0 42.8462L9.94388 37.5Z" fill="#BE4E2D"/>
</svg>
