<svg width="578" height="408" viewBox="0 0 578 408" fill="none" xmlns="http://www.w3.org/2000/svg">
<path d="M0 44.6923C1.59582 39.7798 3.17811 34.8809 4.65221 30.3203C63.0618 88.2682 121.12 145.851 179.272 203.528C120.903 261.381 62.8184 318.95 4.51697 376.749C3.3404 373.244 1.66344 368.277 0 363.311C0 257.105 0 150.898 0 44.6923Z" fill="black"/>
<path d="M30.5223 3.83611C38.028 2.76701 45.5338 0.818271 53.053 0.764139C96.8704 0.479948 140.701 0.62881 184.532 0.62881C297.592 0.62881 410.638 0.62881 523.697 0.601745C532.001 0.601745 540.061 1.46785 548.662 5.79838C539.94 14.3512 531.676 22.2679 523.603 30.3741C450.668 103.547 377.761 176.76 304.84 249.945C294.616 260.203 283.459 260.244 273.316 250.054C193.485 169.925 113.667 89.7971 33.8627 9.66879C32.6861 8.49143 31.5636 7.2464 30.4141 6.04197C30.4546 5.31119 30.4817 4.58042 30.5223 3.84964V3.83611Z" fill="black"/>
<path d="M30.3086 401.934C88.2719 344.501 146.235 287.081 204.55 229.309C205.105 229.836 206.606 231.176 208.026 232.597C221.969 246.59 235.871 260.637 249.855 274.59C272.751 297.433 305.289 297.379 328.294 274.508C343.63 259.257 358.952 244.005 373.504 229.539C431.548 287.067 489.606 344.609 548.787 403.274C541.944 404.763 536.21 406.157 530.408 407.212C528.041 407.645 525.526 407.388 523.091 407.388C366.999 407.388 210.893 407.442 54.8003 407.266C46.7266 407.266 38.6393 405.372 30.5655 404.357C30.4844 403.558 30.3897 402.746 30.3086 401.948V401.934Z" fill="black"/>
<path d="M574.061 30.4805C575.291 36.8274 577.793 43.7021 577.807 50.5904C578.064 152.777 578.064 254.978 577.807 357.165C577.793 364.094 575.345 371.022 574.088 377.708C515.353 319.421 457.255 261.771 398.98 203.932C457.038 146.403 515.124 88.8614 574.061 30.4805Z" fill="black"/>
</svg>
