<svg width="66" height="56" viewBox="0 0 66 56" fill="none" xmlns="http://www.w3.org/2000/svg">
<g clip-path="url(#clip0_304_522)">
<path d="M46.2078 6.93713C41.0954 2.46372 34.2912 0 27.051 0C19.8108 0 13.0066 2.46372 7.89306 6.93713C2.80292 11.3903 0 17.3056 0 23.592C0 28.4684 1.69281 33.1481 4.89448 37.126L5.08057 37.3567L5.01145 37.6449C4.37558 40.3106 3.92154 43.0381 3.66315 45.7506C3.6472 45.9229 3.74716 46.0271 3.79075 46.0643C3.84498 46.11 3.95769 46.1791 4.11826 46.1366L12.9896 43.7484L13.199 43.8568C17.3747 46.0335 22.165 47.184 27.051 47.184C34.2912 47.184 41.0954 44.7202 46.2078 40.2468C51.298 35.7926 54.102 29.8773 54.102 23.592C54.102 17.3067 51.298 11.3914 46.2078 6.93713ZM27.051 26.4449C25.4783 26.4449 24.1981 25.1646 24.1981 23.592C24.1981 22.0193 25.4783 20.7391 27.051 20.7391C28.6236 20.7391 29.9039 22.0193 29.9039 23.592C29.9039 25.1646 28.6236 26.4449 27.051 26.4449ZM14.0497 26.4449C12.4771 26.4449 11.1968 25.1646 11.1968 23.592C11.1968 22.0193 12.4771 20.7391 14.0497 20.7391C15.6224 20.7391 16.9026 22.0193 16.9026 23.592C16.9026 25.1646 15.6224 26.4449 14.0497 26.4449ZM40.0523 26.4449C38.4796 26.4449 37.1994 25.1646 37.1994 23.592C37.1994 22.0193 38.4796 20.7391 40.0523 20.7391C41.6249 20.7391 42.9052 22.0193 42.9052 23.592C42.9052 25.1646 41.6249 26.4449 40.0523 26.4449Z" fill="#16181C"/>
<path d="M62.6323 49.764L62.8183 49.5322C64.8716 46.9824 65.9562 43.9827 65.9562 40.8587C65.9562 34.6786 61.6125 29.1132 55.0731 26.8164C54.2777 32.233 51.4833 37.2359 47.0035 41.1553C43.1341 44.541 38.3417 46.8218 33.125 47.8203C36.1012 52.8136 42.0633 55.9994 48.5677 55.9994C51.713 55.9994 54.7956 55.2582 57.4826 53.8578L57.691 53.7494L63.5435 55.3241C63.551 55.3263 63.5563 55.3284 63.5659 55.3199C63.5754 55.3103 63.5754 55.3018 63.5754 55.2954C63.4074 53.5378 63.1139 51.7737 62.7024 50.0522L62.6333 49.764H62.6323Z" fill="#16181C"/>
</g>
<defs>
<clipPath id="clip0_304_522">
<rect width="65.9559" height="56" fill="white"/>
</clipPath>
</defs>
</svg>
