<svg width="51" height="51" viewBox="0 0 51 51" fill="none" xmlns="http://www.w3.org/2000/svg">
<g clip-path="url(#clip0_304_528)">
<path d="M50.566 44.7319L49.0658 47.4938C47.926 49.5941 45.7473 50.9268 43.3565 50.9734C37.1785 51.0954 24.8333 49.6047 13.1135 37.885C1.3249 26.0963 -0.136086 13.7829 0.00916497 7.6272C0.0653569 5.24699 1.39594 3.08095 3.48776 1.94439L6.26873 0.43569C7.66187 -0.320251 9.38685 -0.071098 10.5075 1.05062L18.033 8.5761C19.4304 9.97347 19.4304 12.2402 18.033 13.6376L16.4776 15.193C15.6856 15.986 15.4238 17.1682 15.8139 18.2188C16.6229 20.3997 18.5069 24.2855 22.611 28.3896C26.7152 32.4937 30.6009 34.3777 32.7818 35.1867C33.8325 35.5769 35.0146 35.315 35.8066 34.5219L37.3619 32.9666C38.7593 31.5692 41.0261 31.5692 42.4235 32.9666L49.9489 40.4921C51.0696 41.6127 51.3198 43.3377 50.5639 44.7308L50.566 44.7319Z" fill="#1D232D"/>
</g>
<defs>
<clipPath id="clip0_304_528">
<rect width="51" height="50.9788" fill="white"/>
</clipPath>
</defs>
</svg>
