<svg width="12268" height="13201" viewBox="0 0 12268 13201" fill="none" xmlns="http://www.w3.org/2000/svg">
<path d="M1029.42 12916.3C1039.74 12974.5 1041.32 13031.8 1036.56 13088C1086.97 13084.1 1124.68 13082.1 1138.17 13082.1V13201C1144.52 13197.6 1150.48 13194.1 1156.83 13190.7C1160 13188.8 1162.78 13188.3 1165.56 13186.8C1188.18 13145.2 1210.81 13103.2 1233.43 13061.6C1249.31 13032.2 1273.52 13060.6 1272.33 13091.4C1280.27 13087 1288.61 13082.6 1296.94 13079.7C1315.2 13073.3 1337.03 13106.1 1323.93 13134C1321.55 13138.9 1319.57 13143.3 1317.18 13148.2C1321.15 13148.2 1324.73 13150.6 1328.3 13153.6C1341.79 13141.8 1355.69 13131.5 1369.18 13121.3V812.82H1057.6C1052.44 845.103 1044.9 876.407 1036.56 907.222C1059.58 912.114 1079.43 917.983 1094.11 925.32C1119.52 1162.06 1119.52 1438.42 1094.11 1517.66C1068.71 1596.41 636.065 1596.41 610.662 1596.41C599.548 1596.41 626.539 1500.05 657.896 1380.7C640.828 1389.99 623.761 1398.31 605.899 1405.64C588.435 1412.98 572.558 1398.31 565.81 1376.3C550.727 1387.06 535.644 1397.33 520.561 1407.6C499.524 1421.3 480.075 1405.16 472.136 1380.7C439.192 1399.78 405.85 1414.45 375.684 1426.19L322.497 2538.96L54.1774 3116.62C237.555 3177.76 381.638 3194.88 384.417 3047.65C363.777 2861.29 578.512 2694.01 578.512 2670.04C578.512 2635.8 1002.03 2601.08 1092.53 2670.04C1122.69 2945.91 1122.69 3221.78 1092.53 3324.99C940.505 3353.85 767.447 3358.25 679.727 3338.68C542.392 3362.65 405.454 3391.51 268.515 3422.81L253.035 4925.91C272.485 4909.28 292.331 4895.09 312.971 4883.35C315.352 4871.13 319.718 4860.36 327.657 4853.52C368.937 4817.81 365.364 4820.26 412.598 4800.2C423.315 4795.8 432.841 4798.73 439.589 4806.07C444.352 4804.11 448.718 4802.16 453.481 4800.2C473.327 4792.38 490.395 4814.39 495.952 4840.31C499.921 4846.18 502.699 4853.03 504.684 4860.36C524.927 4849.11 545.964 4839.82 567.001 4835.91V4396.67C651.545 4396.67 1045.29 4353.14 1101.66 4353.14C1101.66 4789.93 1158.02 5052.1 1101.66 5095.64C1020.68 5126.94 779.354 5113.24 650.355 5102.97C645.195 5107.37 639.638 5110.31 633.684 5110.8C632.89 5113.24 632.096 5115.2 630.905 5117.65C628.524 5124 625.348 5128.9 622.173 5132.81C616.219 5143.08 607.884 5149.44 599.152 5150.91C604.708 5199.33 572.161 5225.74 549.536 5209.11C541.201 5214 531.675 5214.98 522.942 5210.58C513.019 5216.94 501.509 5216.94 492.38 5209.11C483.647 5233.57 463.801 5245.31 448.718 5236.02C447.527 5236.5 446.733 5237.48 445.94 5237.97C441.97 5261.94 426.887 5279.06 411.01 5279.06C398.706 5296.18 378.463 5299.6 363.777 5281.02C353.854 5299.6 335.198 5307.92 320.512 5297.16C317.337 5299.6 313.765 5301.07 310.192 5302.05C309.001 5325.04 295.506 5343.13 280.026 5347.05C281.217 5350.47 282.805 5353.9 283.995 5357.32C297.491 5392.05 280.026 5439 254.226 5438.52C252.242 5438.52 250.654 5438.52 249.066 5438.52L242.715 6059.22L1.38672 7165.14C13.2944 7157.32 23.6144 7146.55 32.7436 7130.9C40.2851 7117.21 51.7958 7113.29 62.1158 7116.23C98.2357 7086.88 135.943 7063.4 174.048 7041.39C175.239 7019.87 183.971 7000.79 198.657 6994.44C223.266 6983.67 241.922 6952.37 244.7 6910.79C245.891 6892.21 251.845 6872.64 262.958 6863.84C263.752 6854.54 264.546 6845.25 265.737 6834.98C267.722 6815.9 276.851 6804.65 287.965 6799.76C289.949 6793.89 292.331 6789 295.506 6785.09C291.934 6768.46 291.14 6749.87 294.315 6732.75C294.315 6732.26 294.712 6731.77 294.712 6730.79C276.851 6531.23 575.733 6150.2 575.733 6150.2C575.733 6150.2 1082.21 6106.67 1138.57 6106.67V6805.63C1138.57 6805.63 763.08 6842.32 633.684 6848.19C633.684 6851.12 632.89 6854.06 632.493 6856.99C630.508 6872.15 624.952 6881.94 618.204 6887.8C613.044 6896.12 605.899 6901.99 598.358 6904.92C598.358 6906.88 598.358 6908.35 598.358 6910.3C597.961 6933.78 589.229 6950.9 577.321 6958.73C568.589 7017.42 550.33 7055.58 514.21 7081.01C513.019 7102.53 504.287 7120.14 489.601 7128.46C439.192 7157.32 389.577 7185.2 343.137 7227.75C339.168 7231.17 335.198 7233.13 331.229 7234.11C312.971 7255.63 291.934 7267.86 270.103 7277.15V8687.8C374.891 8597.31 481.266 8511.23 589.625 8430.03C578.115 8257.86 577.718 7981.01 611.853 7901.28C815.474 7861.66 1018.7 7861.66 1095.3 7901.28C1120.71 8138.02 1120.71 8414.38 1095.3 8493.62C1069.9 8572.37 637.256 8572.37 611.853 8572.37C609.472 8572.37 606.693 8566.99 604.312 8556.71C491.189 8642.8 379.654 8734.27 270.103 8830.14L256.211 9662.63L162.934 10388.5C171.666 10390 180.399 10391.9 189.528 10395.4C201.039 10352.8 212.946 10311.7 230.808 10271.6C250.257 10227.6 283.598 10216.3 309.795 10239.3C313.765 10230 317.734 10220.2 322.497 10210.9C339.961 10174.8 372.906 10159.6 398.309 10173.8C408.629 10156.7 419.743 10140.5 432.047 10124.9C443.558 10110.2 455.863 10103.3 468.167 10101.4C470.152 10091.1 471.74 10080.8 473.724 10070.6C475.709 10059.8 478.487 10051 482.06 10042.7C472.93 9878.83 580.496 9663.61 580.496 9645.52C580.496 9611.28 1004.01 9576.55 1094.51 9645.52C1124.68 9921.38 1124.68 10197.3 1094.51 10300.5C1019.49 10314.6 938.917 10323 866.28 10325.4C943.68 10477.5 948.84 10713.8 882.554 10884.5C905.179 10895.7 927.009 10909.9 946.459 10926.1C1014.73 10981.8 1058.79 11088.9 1082.21 11200C1090.54 11240.1 1093.72 11284.1 1092.53 11329.6C1097.29 11329.6 1101.26 11329.6 1104.04 11329.6C1104.04 11766.4 1160.4 12028.6 1104.04 12072.1C1028.62 12101.4 814.283 12091.2 680.918 12081.9C659.087 12115.6 634.081 12144.5 608.281 12170.9C686.078 12229.1 749.188 12340.6 775.782 12468.8C784.117 12508.4 788.087 12548 788.087 12586.6C825.397 12596.4 862.311 12617 895.256 12643.9C959.16 12696.2 1011.95 12811.6 1031 12917.8L1029.42 12916.3Z" fill="#FAF4EA"/>
<path d="M328.295 4853.5C369.575 4817.79 366.002 4820.24 413.236 4800.18C423.953 4795.78 433.479 4798.72 440.227 4806.05C444.99 4804.1 449.356 4802.14 454.119 4800.18C473.965 4792.36 491.033 4814.37 496.59 4840.29C500.559 4846.16 503.337 4853.01 505.322 4860.35C525.565 4849.1 546.602 4839.8 567.639 4835.89V4579.59C513.657 4546.33 459.676 4512.09 407.282 4471.98C356.873 4432.85 308.052 4388.83 260.024 4342.36L254.07 4925.89C273.519 4909.26 293.366 4895.08 314.006 4883.34C316.387 4871.11 320.753 4860.35 328.692 4853.5H328.295Z" fill="#EBE2D2"/>
<path opacity="0.48" d="M653.054 5195.37C655.436 5189.02 657.817 5182.66 660.993 5177.77C664.565 5171.9 668.931 5168.47 673.297 5166.03C674.885 5160.65 676.473 5154.78 678.457 5149.89C682.823 5139.12 687.983 5132.77 693.937 5129.83C698.303 5121.52 704.654 5115.16 713.386 5112.22C716.165 5111.24 718.546 5111.24 720.928 5111.24C720.928 5110.27 720.928 5109.29 720.531 5108.31C695.525 5106.84 671.709 5104.89 651.069 5103.42C645.91 5107.82 640.353 5110.76 634.399 5111.24C633.605 5113.69 632.811 5115.65 631.62 5118.09C629.239 5124.45 626.063 5129.34 622.888 5133.25C616.934 5143.53 608.599 5149.89 599.867 5151.35C605.423 5199.78 572.876 5226.19 550.251 5209.56C541.916 5214.45 532.39 5215.43 523.658 5211.03C513.734 5217.39 502.224 5217.39 493.095 5209.56C484.362 5234.02 464.516 5245.75 449.433 5236.46C448.242 5236.95 447.448 5237.93 446.655 5238.42C442.685 5262.39 427.602 5279.5 411.726 5279.5C399.421 5296.62 379.178 5300.05 364.492 5281.46C354.569 5300.05 335.913 5308.36 321.227 5297.6C318.052 5300.05 314.48 5301.52 310.907 5302.49C309.716 5325.48 296.221 5343.58 280.741 5347.49C281.932 5350.92 283.52 5354.34 284.71 5357.28C298.206 5392 280.741 5438.96 254.941 5438.47C252.957 5438.47 251.369 5438.47 249.781 5438.47V5492.76C252.957 5491.79 256.529 5491.3 260.101 5491.79C264.467 5469.78 279.947 5457.55 294.237 5461.46C300.587 5449.23 311.304 5444.83 322.021 5446.79C328.372 5438.47 336.31 5434.56 344.646 5435.54C351.393 5423.31 363.301 5416.95 373.621 5419.88C377.193 5406.68 385.529 5397.87 395.055 5394.94C400.215 5379.29 409.741 5369.99 420.061 5369.02C425.618 5347 444.273 5337.71 458.165 5345.54C465.31 5327.93 478.011 5319.61 489.919 5323.53C491.507 5315.7 494.682 5308.85 498.255 5303.47C504.605 5279.02 524.054 5262.38 540.725 5278.04C545.885 5271.19 552.633 5266.79 559.381 5265.81C566.922 5249.67 582.005 5242.33 594.707 5248.69C599.867 5244.29 606.217 5242.82 612.171 5243.8C616.537 5236.95 622.094 5232.06 628.048 5229.61C630.43 5210.05 641.543 5197.33 653.848 5194.4L653.054 5195.37Z" fill="#EBE2D2"/>
<path d="M61.6646 7116.25C97.7846 7086.9 135.492 7063.42 173.597 7041.41C174.787 7019.89 183.52 7000.81 198.206 6994.46C222.815 6983.69 241.47 6952.39 244.249 6910.81C245.44 6892.23 251.393 6872.66 262.507 6863.86C263.301 6854.56 264.095 6845.27 265.286 6835C267.27 6815.92 276.4 6804.67 287.513 6799.78C289.498 6793.91 291.879 6789.02 295.055 6785.11C291.483 6768.48 290.689 6749.89 293.864 6732.77C293.864 6732.28 294.261 6731.79 294.261 6730.81C291.086 6694.13 298.627 6651.09 312.916 6605.6C239.486 6641.79 167.246 6682.39 96.1969 6729.84L0.935547 7165.16C12.8432 7157.34 23.1632 7146.57 32.2924 7130.92C39.8339 7117.23 51.3447 7113.31 61.6646 7116.25Z" fill="#EBE2D2"/>
<path opacity="0.68" d="M229.569 10271.6C249.018 10227.6 282.359 10216.3 308.556 10239.3C312.525 10230 316.494 10220.2 321.258 10211C338.722 10174.8 371.667 10159.6 397.07 10173.8C407.39 10156.7 418.503 10140.5 430.808 10124.9C442.319 10110.2 454.623 10103.3 466.928 10101.4C468.913 10091.1 470.5 10080.8 472.485 10070.6C474.47 10059.8 477.248 10051 480.82 10042.7C479.233 10014.3 481.217 9984.49 485.583 9954.65C441.525 9895.47 398.26 9835.79 356.187 9773.67C324.036 9726.23 287.519 9677.32 256.162 9623.51L255.368 9663.13L162.092 10389C170.824 10390.5 179.556 10392.4 188.686 10395.8C200.196 10353.3 212.104 10312.2 229.965 10272.1L229.569 10271.6Z" fill="#EBE2D2"/>
<path opacity="0.46" d="M579.311 2669.59L350.684 1961.33L319.327 2557.58L272.093 2649.04C272.093 2649.04 272.093 2649.04 271.696 2649.04L265.743 2661.76L54.5801 3116.16C237.958 3177.3 382.041 3194.42 384.819 3047.19C373.705 2946.43 431.656 2851.05 486.828 2781.11C486.828 2781.11 486.431 2781.11 486.034 2781.11C518.185 2753.23 578.914 2670.08 578.914 2670.08L579.311 2669.59Z" fill="#EBE2D2"/>
<path d="M1616.06 1116.13C1350.52 1532.37 1298.92 2174.6 1306.85 2899C1341.39 6079.32 1375.92 9259.64 1410.45 12439.5C1412.44 12638.5 1466.42 12904.6 1627.96 12901.7C1713.3 12900.2 1779.59 12816.1 1850.64 12757.4C2286.86 12396.4 2860.41 12995.1 3379.58 12895.3C3856.29 12803.9 5578.93 13140.4 6564.88 12971.6C6614.5 12963.3 8224.41 12823.9 8260.53 12823.9C9506.08 12823.9 12267.1 12805.3 12267.1 12805.3C12267.1 12509.4 12253.2 4210.85 12194 867.648C9014.29 745.855 5833.75 664.17 2652.42 622.105C2139.99 615.257 1816.9 800.637 1616.06 1115.64V1116.13Z" fill="#FAF4EA"/>
<path opacity="0.7" d="M5013.68 1287.36C5010.9 1211.05 5006.93 1143.06 5005.74 1074.58C5000.58 777.683 4995.82 481.271 4991.45 184.369C4991.45 162.358 4992.64 140.348 4994.63 118.337C4998.99 77.739 5017.25 55.7282 5041.47 52.3043C5124.42 41.5435 5207.38 30.7826 5291.13 30.2935C5344.32 30.2935 5393.93 62.0869 5447.12 54.75C5517.77 44.9674 5588.42 53.7717 5658.28 74.8043C5663.84 76.7608 5670.19 76.2716 5675.75 76.2716C5766.25 76.7608 5857.93 63.5543 5947.24 81.1629C6052.03 101.706 6153.24 56.7065 6256.84 71.3803C6308.04 78.7173 6360.04 54.2608 6411.24 37.6304C6471.58 18.5544 6535.08 16.5979 6597.4 16.5979C6634.71 16.5979 6672.82 33.7174 6709.73 46.4348C6778 70.4021 6845.48 51.8152 6912.56 37.1413C6950.26 28.8261 6986.78 12.1957 7024.49 3.88053C7053.86 -2.47815 7082.44 -1.98902 7112.61 12.6849C7137.21 24.9131 7166.98 27.8479 7191.59 19.0435C7237.64 2.41314 7282.88 15.6196 7325.75 27.3587C7363.86 38.1196 7401.56 34.6957 7439.27 40.5652C7492.46 49.3695 7546.44 52.3043 7600.03 56.2173C7664.72 60.6195 7729.82 62.576 7799.28 65.9999C7809.6 469.531 7822.3 872.085 7821.9 1282.95C7754.82 1279.04 7691.71 1275.13 7628.6 1271.7C7619.08 1271.21 7609.15 1273.17 7599.23 1275.62C7592.09 1277.08 7585.34 1282.46 7578.59 1282.46C7501.19 1282.95 7423 1298.61 7347.58 1249.2C7310.27 1224.75 7272.96 1246.27 7236.05 1263.88C7221.36 1270.72 7206.28 1274.64 7190.8 1275.62C7155.08 1277.57 7118.96 1279.04 7083.23 1276.59C7055.45 1274.64 7027.27 1268.28 6999.48 1261.43C6972.89 1255.07 6946.69 1245.29 6920.49 1237.46C6914.94 1236 6908.98 1235.02 6903.82 1236.98C6872.07 1249.2 6840.32 1262.9 6808.56 1275.13C6799.83 1278.55 6790.7 1280.02 6781.97 1279.53C6727.99 1276.11 6674.4 1270.72 6620.42 1269.26C6554.14 1267.3 6487.45 1268.28 6421.17 1269.26C6410.05 1269.26 6399.34 1277.08 6388.22 1280.51C6333.84 1297.14 6279.07 1293.71 6223.9 1285.4C6201.27 1281.97 6177.85 1275.13 6156.02 1280.51C6091.32 1296.65 6028.61 1287.84 5966.69 1257.03C5943.27 1245.29 5924.62 1248.71 5902.79 1270.24C5862.3 1310.34 5815.46 1301.54 5770.21 1294.69C5702.34 1284.42 5634.86 1270.24 5566.99 1258.01C5565.4 1258.01 5563.81 1256.54 5562.62 1257.52C5522.53 1278.55 5480.46 1278.55 5438.78 1282.95C5403.86 1286.87 5369.32 1307.41 5334.39 1306.43C5229.61 1303.5 5125.22 1293.71 5013.28 1286.38L5013.68 1287.36Z" fill="#BDB1A0"/>
</svg>
