<svg width="55" height="51" viewBox="0 0 55 51" fill="none" xmlns="http://www.w3.org/2000/svg">
<g clip-path="url(#clip0_304_564)">
<path d="M36.3016 10.7154C35.6815 10.7154 35.1783 10.2121 35.1783 9.59203V5.25141C35.1783 3.59335 33.8302 2.24084 32.1677 2.24084H22.435C20.7769 2.24084 19.4244 3.58885 19.4244 5.25141V9.59203C19.4244 10.2121 18.9212 10.7154 18.3011 10.7154C17.681 10.7154 17.1777 10.2121 17.1777 9.59203V5.25141C17.1777 2.35317 19.5368 -0.00585938 22.435 -0.00585938H32.1677C35.0659 -0.00585938 37.425 2.35317 37.425 5.25141V9.59203C37.425 10.2121 36.9217 10.7154 36.3016 10.7154Z" fill="#1D232D"/>
<path d="M8.7711 27.0353C9.18449 27.278 9.6563 27.4083 10.1371 27.4083H44.4756C44.9564 27.4083 45.4282 27.278 45.8416 27.0353L54.6127 21.8454V16.1298C54.6127 14.2022 53.0355 12.625 51.1078 12.625H3.50485C1.57718 12.625 0 14.2022 0 16.1298V21.8454L8.7711 27.0353Z" fill="#1D232D"/>
<path d="M46.9874 28.9684C46.228 29.4177 45.3608 29.6559 44.4756 29.6559H34.2441V33.5921C34.2441 36.0095 32.285 37.9687 29.8676 37.9687H24.7406C22.3232 37.9687 20.3641 36.0095 20.3641 33.5921V29.6559H10.1326C9.25189 29.6559 8.38018 29.4177 7.62079 28.9684L0 24.457V47.4946C0 49.4223 1.57718 50.9995 3.50485 50.9995H51.1034C53.031 50.9995 54.6082 49.4223 54.6082 47.4946V24.457L46.9829 28.9684H46.9874Z" fill="#1D232D"/>
<path d="M29.7882 35.6479H24.823C23.794 35.6479 22.9492 34.8031 22.9492 33.7741C22.9492 32.7452 23.794 31.9004 24.823 31.9004H29.7882C30.8171 31.9004 31.6619 32.7452 31.6619 33.7741C31.6619 34.8031 30.8171 35.6479 29.7882 35.6479Z" fill="#1D232D"/>
</g>
<defs>
<clipPath id="clip0_304_564">
<rect width="54.6127" height="51" fill="white"/>
</clipPath>
</defs>
</svg>
