<svg width="63" height="63" viewBox="0 0 63 63" fill="none" xmlns="http://www.w3.org/2000/svg">
<g clip-path="url(#clip0_304_583)">
<path d="M43.8054 60.5103C59.8243 53.7173 67.3033 35.2247 60.5103 19.2058C53.7173 3.18701 35.2247 -4.29202 19.2058 2.50098C3.187 9.29397 -4.29202 27.7866 2.50097 43.8054C9.29397 59.8243 27.7866 67.3033 43.8054 60.5103Z" fill="#1D232D"/>
<path d="M23.1823 39.8275H25.2606V26.7264C24.4836 26.9498 23.7747 27.348 23.1823 27.8724V39.8275ZM19.0159 30.9607V39.8081H19.1519L21.0943 39.8178V30.9413H19.1519L19.0159 30.951V30.9607ZM14.8496 35.3893C14.8496 37.0014 15.6848 38.3999 16.9279 39.1769V31.6017C15.6848 32.3786 14.8496 33.7771 14.8496 35.3893ZM27.3389 39.8275H29.4172V27.2994C28.7957 26.9109 28.0867 26.6584 27.3389 26.5613V39.8275ZM43.8488 30.951H42.6737C42.732 30.5917 42.7708 30.2226 42.7708 29.8439C42.7708 26.1631 39.8865 23.1816 36.3222 23.1816C34.3896 23.1816 32.6706 24.0751 31.4858 25.4639V39.8275H43.8391C46.2088 39.8275 48.1317 37.8366 48.1317 35.3893C48.1317 32.9419 46.2088 30.951 43.8391 30.951H43.8488Z" fill="white"/>
</g>
<defs>
<clipPath id="clip0_304_583">
<rect width="63" height="63" fill="white"/>
</clipPath>
</defs>
</svg>
