<svg width="63" height="63" viewBox="0 0 63 63" fill="none" xmlns="http://www.w3.org/2000/svg">
<g clip-path="url(#clip0_304_578)">
<path d="M28.6156 0H34.3837C38.5778 0.289122 43.1324 1.77756 48.0439 4.47246C58.0132 11.4007 62.9997 20.3742 62.9997 31.3929C62.9997 42.4117 58.1988 51.0782 48.5971 57.9422C43.1074 61.3152 37.3713 63 31.389 63C23.5756 63 16.4725 60.1944 10.0797 54.5798C5.49655 49.7682 2.76238 45.6563 1.87717 42.2439C0.870598 39.5312 0.242383 36.7256 -0.00390625 33.8237V28.9836C-0.00390625 25.9424 1.23825 21.6948 3.72612 16.2479C5.57507 13.0212 8.13434 9.96935 11.4039 7.08884C15.3374 3.74074 20.1989 1.49915 25.9956 0.371218C27.3128 0.124929 28.1837 0 28.6156 0ZM24.6678 17.7614H23.7433C15.1482 18.2539 10.8542 19.4354 10.8542 21.3093C10.7293 21.5164 10.6686 21.8233 10.6686 22.2338C10.8328 23.8579 11.6359 24.6717 13.0744 24.6717V24.8573C17.8039 23.6223 22.2335 23.0084 26.3669 23.0084H26.7381C34.7335 23.0084 42.0829 24.7467 48.7863 28.2197C49.2789 28.3446 49.7215 28.4053 50.1105 28.4053C51.3634 28.4053 52.1058 27.4095 52.3307 25.4142C52.3307 23.0298 46.8517 20.6669 35.8936 18.3218C32.6454 17.9505 29.408 17.7042 26.1812 17.5829L25.81 17.7685C25.6851 17.7685 25.6244 17.7078 25.6244 17.5829L24.6678 17.7685V17.7614ZM12.5176 31.3929C12.7639 32.8921 13.3921 33.6452 14.3986 33.6452H15.5087C20.2775 32.6601 23.8968 32.1639 26.3633 32.1639C32.4063 32.1639 38.6349 33.838 45.0491 37.1896C45.5417 37.3146 45.9736 37.3752 46.3448 37.3752C47.3514 37.3752 47.9796 36.6971 48.2259 35.3407C47.9796 32.8956 43.3644 30.6541 34.3802 28.6195C33.0452 28.2304 30.0541 27.9092 25.4067 27.6629C16.9365 28.3018 12.7032 29.3584 12.7032 30.8397C12.7032 30.9824 12.6425 31.168 12.5176 31.3965V31.3929ZM13.8418 39.8131V40.37C14.0881 41.5015 14.3986 42.0654 14.7663 42.0654H15.1375C20.256 41.3266 23.7505 40.9554 25.6209 40.9554H26.1777C32.4277 40.9554 37.7818 42.3831 42.2436 45.2422H42.8004C43.9319 45.078 44.4959 44.5212 44.4959 43.5753V43.3611C44.4959 41.7799 40.8765 39.9809 33.6413 37.9642C30.6609 37.5751 28.7262 37.3788 27.8446 37.3788H24.2966C17.3291 37.9142 13.8418 38.7245 13.8418 39.8167V39.8131Z" fill="#1D232D"/>
</g>
<defs>
<clipPath id="clip0_304_578">
<rect width="63" height="63" fill="white"/>
</clipPath>
</defs>
</svg>
