<svg width="57" height="57" viewBox="0 0 57 57" fill="none" xmlns="http://www.w3.org/2000/svg">
<g clip-path="url(#clip0_304_534)">
<path d="M50.6541 45.5945C48.6563 44.7434 46.6231 44.0117 44.558 43.4006C44.2033 43.2953 44.0036 42.9194 44.1147 42.566C45.3429 38.6603 46.0486 34.3161 46.1668 29.7921C46.1763 29.4328 46.4706 29.1467 46.8312 29.1467H56.3365C56.7148 29.1467 57.0186 29.4623 57.0008 29.8406C56.7242 35.5076 54.7986 40.872 51.4544 45.3782C51.27 45.6265 50.9402 45.7163 50.6553 45.5945H50.6541ZM0.666361 29.1467H10.1717C10.531 29.1467 10.8266 29.4328 10.836 29.7921C10.9542 34.3161 11.66 38.6603 12.8882 42.566C12.9993 42.9194 12.7995 43.2953 12.4449 43.4006C10.3797 44.0117 8.34651 44.7434 6.34875 45.5945C6.06386 45.7163 5.73405 45.6265 5.54964 45.3782C2.20428 40.872 0.277448 35.5088 0.000834683 29.8406C-0.018079 29.4623 0.286904 29.1467 0.665179 29.1467H0.666361ZM6.34756 11.2437C8.34532 12.0948 10.3785 12.8265 12.4437 13.4377C12.7983 13.5429 12.9981 13.9188 12.887 14.2723C11.6588 18.1779 10.9531 22.5222 10.8348 27.0461C10.8254 27.4055 10.531 27.6915 10.1705 27.6915H0.666361C0.288087 27.6915 -0.0157148 27.3759 0.00201679 26.9976C0.27863 21.3306 2.20428 15.9662 5.54846 11.46C5.73287 11.2118 6.06268 11.122 6.34756 11.2437ZM29.875 15.7274C33.9687 15.6317 37.9878 15.1045 41.9041 14.1529C42.2434 14.0701 42.5874 14.2664 42.6926 14.5985C43.8948 18.3789 44.5875 22.6002 44.7105 27.0071C44.7211 27.3818 44.4209 27.6915 44.0461 27.6915H29.8939C29.5275 27.6915 29.2296 27.3936 29.2296 27.0272V16.3918C29.2296 16.0312 29.5169 15.7369 29.8762 15.7274H29.875ZM29.2284 13.6056V0.663854C29.2284 0.251299 29.5996 -0.0572312 30.0062 0.0089668C33.7039 0.611841 37.158 3.4288 39.8615 8.09339C40.5518 9.28496 41.1736 10.5628 41.7233 11.914C41.877 12.2911 41.6559 12.7166 41.2599 12.81C37.5623 13.6859 33.7713 14.1753 29.9117 14.2711C29.5381 14.2805 29.2296 13.9803 29.2296 13.6067L29.2284 13.6056ZM27.09 14.2699C23.2304 14.1742 19.4394 13.6848 15.7418 12.8088C15.3458 12.7154 15.1247 12.2899 15.2784 11.9128C15.8292 10.5616 16.4498 9.28259 17.1402 8.09221C19.8437 3.42762 23.2978 0.611841 26.9954 0.0089668C27.4021 -0.0572312 27.7732 0.251299 27.7732 0.663854V13.6067C27.7732 13.9803 27.4647 14.2805 27.0912 14.2711L27.09 14.2699ZM27.7721 16.3906V27.026C27.7721 27.3925 27.4742 27.6904 27.1077 27.6904H12.9555C12.5808 27.6904 12.2806 27.3806 12.2912 27.0059C12.413 22.599 13.1068 18.3789 14.3091 14.5973C14.4143 14.2652 14.7583 14.0689 15.0975 14.1517C19.0127 15.1033 23.0318 15.6305 27.1266 15.7263C27.486 15.7345 27.7732 16.0301 27.7732 16.3906H27.7721ZM12.9555 29.1455H27.1077C27.4742 29.1455 27.7721 29.4434 27.7721 29.8099V40.4453C27.7721 40.8058 27.4848 41.1002 27.1255 41.1096C23.0318 41.2054 19.0127 41.7326 15.0963 42.6842C14.7571 42.7669 14.4131 42.5707 14.3079 42.2385C13.1057 38.4582 12.413 34.2369 12.29 29.83C12.2794 29.4552 12.5796 29.1455 12.9544 29.1455H12.9555ZM27.7721 43.2303V56.1732C27.7721 56.5858 27.4009 56.8943 26.9942 56.8281C23.2966 56.2252 19.8425 53.4083 17.139 48.7437C16.4487 47.5521 15.8269 46.2743 15.2772 44.9231C15.1235 44.546 15.3446 44.1205 15.7406 44.0271C19.4382 43.1511 23.2292 42.6617 27.0888 42.566C27.4624 42.5565 27.7709 42.8568 27.7709 43.2303H27.7721ZM29.9105 42.566C33.7701 42.6617 37.5611 43.1511 41.2587 44.0271C41.6547 44.1205 41.8758 44.546 41.7221 44.9231C41.1712 46.2743 40.5506 47.5533 39.8603 48.7437C37.1568 53.4083 33.7027 56.2252 30.0051 56.8281C29.5984 56.8943 29.2272 56.5858 29.2272 56.1732V43.2303C29.2272 42.8568 29.5358 42.5565 29.9093 42.566H29.9105ZM29.2284 40.4453V29.8099C29.2284 29.4434 29.5263 29.1455 29.8928 29.1455H44.0449C44.4197 29.1455 44.7199 29.4552 44.7093 29.83C44.5875 34.2369 43.8936 38.457 42.6914 42.2385C42.5862 42.5707 42.2422 42.7669 41.903 42.6842C37.9866 41.7326 33.9675 41.2054 29.8739 41.1096C29.5145 41.1014 29.2272 40.8058 29.2272 40.4453H29.2284ZM46.1668 27.0449C46.0486 22.521 45.3429 18.1768 44.1147 14.2711C44.0036 13.9176 44.2033 13.5417 44.558 13.4365C46.6231 12.8254 48.6563 12.0936 50.6541 11.2425C50.939 11.1208 51.2688 11.2106 51.4532 11.4589C54.7974 15.965 56.723 21.3283 56.9996 26.9965C57.0186 27.3747 56.7136 27.6904 56.3353 27.6904H46.83C46.4706 27.6904 46.1751 27.4043 46.1656 27.0449H46.1668ZM48.6764 8.24116C48.9755 8.54023 49.2675 8.84521 49.5512 9.15611C49.8645 9.49774 49.7451 10.0486 49.3148 10.2236C47.5712 10.9352 45.8016 11.5558 44.0059 12.0806C43.6761 12.1776 43.325 12.0097 43.1986 11.6894C42.591 10.155 41.8971 8.70573 41.118 7.36167C40.0695 5.55186 38.9075 3.99739 37.658 2.71717C37.1639 2.21005 37.6982 1.38494 38.3626 1.62963C42.1926 3.03752 45.7034 5.27171 48.6741 8.24234L48.6764 8.24116ZM8.32286 8.24116C11.2935 5.27052 14.8055 3.03634 18.6344 1.62845C19.2987 1.38376 19.8342 2.21005 19.3389 2.71599C18.0894 3.99621 16.9274 5.55068 15.8789 7.36049C15.0999 8.70454 14.406 10.1538 13.7984 11.6882C13.6719 12.0085 13.322 12.1764 12.991 12.0795C11.1966 11.5534 9.42577 10.934 7.68216 10.2224C7.25306 10.0474 7.13248 9.49655 7.44574 9.15493C7.72945 8.84521 8.02143 8.54023 8.3205 8.23998L8.32286 8.24116ZM8.32286 48.5947C8.02379 48.2957 7.73181 47.9907 7.44811 47.6798C7.13485 47.3382 7.25424 46.7873 7.68453 46.6123C9.42813 45.8995 11.1977 45.2801 12.9934 44.7541C13.3232 44.6571 13.6743 44.825 13.8007 45.1453C14.4083 46.6797 15.1022 48.129 15.8813 49.473C16.9298 51.2828 18.0918 52.8373 19.3413 54.1175C19.8354 54.6247 19.3011 55.4498 18.6367 55.2051C14.8067 53.7972 11.2959 51.563 8.32523 48.5924L8.32286 48.5947ZM48.6764 48.5947C45.7058 51.5654 42.1938 53.7995 38.3649 55.2074C37.7006 55.4521 37.1651 54.6258 37.6604 54.1199C38.9099 52.8397 40.0719 51.2852 41.1204 49.4754C41.8994 48.1313 42.5933 46.6821 43.2009 45.1477C43.3274 44.8274 43.6773 44.6595 44.0083 44.7564C45.8027 45.2825 47.5735 45.9019 49.3171 46.6135C49.7462 46.7885 49.8668 47.3393 49.5536 47.681C49.2699 47.9907 48.9779 48.2957 48.6788 48.5959L48.6764 48.5947Z" fill="#1D232D"/>
</g>
<defs>
<clipPath id="clip0_304_534">
<rect width="57" height="56.8392" fill="white"/>
</clipPath>
</defs>
</svg>
