<svg width="2081" height="1550" viewBox="0 0 2081 1550" fill="none" xmlns="http://www.w3.org/2000/svg">
<g clip-path="url(#clip0_483_134)">
<path d="M-89.2187 122.431C-99.0139 123.802 -108.644 124.013 -118.11 123.38C-117.452 130.074 -117.122 135.082 -117.122 136.874L-137.124 136.874C-136.548 137.717 -135.972 138.508 -135.396 139.351C-135.066 139.773 -134.984 140.142 -134.737 140.511C-127.741 143.516 -120.662 146.52 -113.665 149.525C-108.727 151.633 -113.501 154.848 -118.686 154.69C-117.946 155.744 -117.205 156.851 -116.711 157.958C-115.641 160.383 -121.156 163.282 -125.847 161.543C-126.671 161.226 -127.411 160.963 -128.235 160.647C-128.235 161.174 -128.646 161.648 -129.14 162.122C-127.165 163.915 -125.436 165.76 -123.708 167.552L1947.59 167.552V126.174C1942.16 125.488 1936.89 124.487 1931.71 123.38C1930.88 126.437 1929.9 129.073 1928.66 131.023C1888.82 134.397 1842.32 134.397 1828.98 131.023C1815.73 127.65 1815.73 70.1948 1815.73 66.8213C1815.73 65.3454 1831.95 68.9297 1852.03 73.0939C1850.47 70.8273 1849.07 68.5607 1847.83 66.1888C1846.6 63.8695 1849.07 61.761 1852.77 60.865C1850.96 58.8619 1849.23 56.8589 1847.5 54.8559C1845.2 52.0623 1847.91 49.4794 1852.03 48.4252C1848.82 44.0502 1846.35 39.6225 1844.37 35.6165L1657.11 28.5532L1559.9 -7.0793C1549.61 17.2731 1546.73 36.4071 1571.51 36.7761C1602.87 34.0351 1631.02 62.5517 1635.05 62.5517C1640.82 62.5517 1646.66 118.794 1635.05 130.812C1588.63 134.818 1542.21 134.818 1524.84 130.812C1519.98 110.624 1519.24 87.6421 1522.53 75.993C1518.5 57.755 1513.64 39.5698 1508.38 21.3845L1255.43 19.3288C1258.23 21.9117 1260.62 24.5472 1262.59 27.2882C1264.65 27.6044 1266.46 28.1842 1267.61 29.2385C1273.62 34.7204 1273.21 34.246 1276.59 40.5186C1277.33 41.9418 1276.83 43.2068 1275.6 44.1029C1275.93 44.7354 1276.26 45.3153 1276.59 45.9478C1277.9 48.5833 1274.2 50.8499 1269.84 51.5879C1268.85 52.115 1267.7 52.4839 1266.46 52.7475C1268.35 55.4357 1269.92 58.2294 1270.58 61.0231H1344.49C1344.49 72.2505 1351.82 124.54 1351.82 132.025C1278.31 132.025 1234.19 139.51 1226.87 132.025C1221.6 121.272 1223.91 89.2234 1225.63 72.0924C1224.89 71.4071 1224.4 70.6692 1224.32 69.8785C1223.91 69.7731 1223.58 69.6677 1223.17 69.5095C1222.1 69.1933 1221.27 68.7716 1220.61 68.3499C1218.88 67.5592 1217.81 66.4523 1217.57 65.2927C1209.42 66.0306 1204.97 61.7083 1207.77 58.7038C1206.95 57.5969 1206.79 56.3318 1207.53 55.1722C1206.46 53.8544 1206.46 52.3258 1207.77 51.1135C1203.66 49.9538 1201.68 47.3183 1203.25 45.3153C1203.16 45.1571 1203 45.0517 1202.92 44.9463C1198.88 44.4192 1196 42.4162 1196 40.3077C1193.12 38.6737 1192.55 35.9854 1195.67 34.0351C1192.55 32.7174 1191.15 30.24 1192.96 28.2897C1192.55 27.868 1192.3 27.3936 1192.13 26.9192C1188.26 26.7611 1185.22 24.9689 1184.56 22.9132C1183.98 23.0713 1183.41 23.2821 1182.83 23.4403C1176.99 25.2324 1169.09 22.9132 1169.17 19.487C1169.17 19.2234 1169.17 19.0126 1169.17 18.8017L1064.71 17.9583L878.607 -14.0898C879.924 -12.5085 881.735 -11.138 884.369 -9.92569C886.673 -8.92418 887.332 -7.39557 886.838 -6.02509C891.777 -1.2284 895.728 3.77913 899.432 8.83937C903.054 8.9975 906.264 10.1571 907.334 12.1074C909.145 15.3755 914.413 17.8529 921.409 18.2219C924.537 18.38 927.829 19.1707 929.311 20.6466C930.875 20.752 932.439 20.8574 934.167 21.0156C937.378 21.2791 939.271 22.4915 940.094 23.9674C941.082 24.2309 941.905 24.5472 942.563 24.9689C945.362 24.4945 948.49 24.3891 951.371 24.8107C951.453 24.8107 951.535 24.8635 951.7 24.8635C985.283 22.4915 1049.4 62.1827 1049.4 62.1827C1049.4 62.1827 1056.73 129.442 1056.73 136.927L939.106 136.927C939.106 136.927 932.933 87.0622 931.945 69.8785C931.451 69.8785 930.957 69.7731 930.463 69.7204C927.912 69.4568 926.266 68.7189 925.278 67.8228C923.878 67.1376 922.891 66.1888 922.397 65.1872C922.068 65.1872 921.821 65.1872 921.491 65.1872C917.54 65.1345 914.659 63.9749 913.342 62.3936C903.465 61.2339 897.045 58.8092 892.764 54.0126C889.143 53.8544 886.179 52.6948 884.78 50.7445C879.924 44.0502 875.232 37.4613 868.071 31.2942C867.495 30.7671 867.165 30.24 867.001 29.7129C863.379 27.2882 861.321 24.4945 859.757 21.5954L622.369 21.5954C637.597 35.5111 652.084 49.6376 665.748 64.0276C694.722 62.499 741.31 62.4463 754.727 66.9794C761.394 94.0201 761.394 121.008 754.727 131.181C714.888 134.555 668.382 134.555 655.047 131.181C641.795 127.808 641.795 70.3529 641.795 66.9794C641.795 66.6632 642.7 66.2942 644.429 65.9779C629.942 50.9553 614.55 36.1436 598.416 21.5954L458.321 19.7505L336.17 7.36346C335.923 8.5231 335.594 9.68274 335.018 10.8951C342.179 12.4237 349.093 14.005 355.843 16.377C363.251 18.9598 365.144 23.3876 361.275 26.8665C362.839 27.3936 364.486 27.9207 366.049 28.5532C372.141 30.8725 374.692 35.2475 372.305 38.621C375.186 39.9915 377.902 41.4674 380.536 43.1014C383.006 44.63 384.158 46.2641 384.487 47.8981C386.216 48.1617 387.944 48.3725 389.673 48.636C391.484 48.8996 392.966 49.2686 394.365 49.743C421.939 48.5306 458.157 62.8153 461.202 62.8153C466.964 62.8153 472.808 119.058 461.202 131.076C414.778 135.082 368.354 135.082 350.986 131.076C348.599 121.113 347.2 110.413 346.788 100.767C321.189 111.046 281.433 111.731 252.706 102.928C250.813 105.933 248.425 108.832 245.709 111.415C236.326 120.481 218.299 126.332 199.614 129.442C192.865 130.549 185.457 130.97 177.802 130.812C177.802 131.445 177.802 131.972 177.802 132.341C104.297 132.341 60.1778 139.826 52.852 132.341C47.9133 122.326 49.6418 93.8619 51.2058 76.1511C45.5262 73.252 40.6698 69.9312 36.2249 66.505C26.4298 76.8363 7.66266 85.2174 -13.9031 88.749C-20.5704 89.8559 -27.2376 90.383 -33.7402 90.383C-35.3865 95.3378 -38.8437 100.24 -43.3708 104.615C-52.1782 113.101 -71.6039 120.112 -89.4657 122.642L-89.2187 122.431Z" fill="#FAF4EA"/>
<path d="M1267.61 29.3218C1273.62 34.8037 1273.21 34.3293 1276.58 40.6019C1277.32 42.0251 1276.83 43.2901 1275.59 44.1862C1275.92 44.8188 1276.25 45.3986 1276.58 46.0311C1277.9 48.6666 1274.19 50.9332 1269.83 51.6712C1268.84 52.1983 1267.69 52.5672 1266.46 52.8308C1268.35 55.5191 1269.91 58.3127 1270.57 61.1064L1313.7 61.1064C1319.3 53.9377 1325.06 46.7691 1331.81 39.8112C1338.4 33.1169 1345.81 26.6335 1353.62 20.2555L1255.43 19.4648C1258.23 22.0477 1260.61 24.6832 1262.59 27.4242C1264.65 27.7404 1266.46 28.3203 1267.61 29.3745V29.3218Z" fill="#EBE2D2"/>
<path opacity="0.48" d="M1210.09 72.4409C1211.16 72.7572 1212.23 73.0734 1213.05 73.4951C1214.04 73.9695 1214.62 74.5494 1215.03 75.1292C1215.93 75.34 1216.92 75.5509 1217.74 75.8144C1219.55 76.3942 1220.62 77.0795 1221.12 77.8701C1222.52 78.45 1223.59 79.2933 1224.08 80.453C1224.25 80.8219 1224.25 81.1382 1224.25 81.4545C1224.41 81.4545 1224.57 81.4545 1224.74 81.4018C1224.99 78.081 1225.32 74.9183 1225.56 72.1774C1224.82 71.4921 1224.33 70.7542 1224.25 69.9635C1223.83 69.8581 1223.5 69.7527 1223.09 69.5945C1222.02 69.2783 1221.2 68.8566 1220.54 68.4349C1218.81 67.6442 1217.74 66.5373 1217.5 65.3777C1209.35 66.1156 1204.9 61.7933 1207.7 58.7888C1206.88 57.6819 1206.71 56.4168 1207.45 55.2572C1206.38 53.9394 1206.38 52.4108 1207.7 51.1985C1203.59 50.0388 1201.61 47.4033 1203.17 45.4003C1203.09 45.2421 1202.93 45.1367 1202.84 45.0313C1198.81 44.5042 1195.93 42.5012 1195.93 40.3927C1193.05 38.7587 1192.47 36.0704 1195.6 34.1201C1192.47 32.8024 1191.07 30.325 1192.88 28.3747C1192.47 27.953 1192.23 27.4786 1192.06 27.0042C1188.19 26.8461 1185.15 25.0539 1184.49 22.9982C1183.91 23.1563 1183.34 23.3671 1182.84 23.5253C1177 25.3174 1169.1 22.9982 1169.18 19.572C1169.18 19.3084 1169.18 19.0976 1169.18 18.8867L1160.04 18.8867C1160.21 19.3084 1160.29 19.7828 1160.21 20.2572C1163.91 20.837 1165.97 22.8927 1165.31 24.7903C1167.37 25.6337 1168.11 27.0569 1167.78 28.4801C1169.18 29.3235 1169.84 30.3777 1169.67 31.4846C1171.73 32.3807 1172.8 33.962 1172.31 35.3325C1174.53 35.8069 1176.01 36.9138 1176.5 38.1789C1179.14 38.8641 1180.7 40.1292 1180.87 41.4997C1184.57 42.2376 1186.13 44.715 1184.82 46.5599C1187.78 47.5087 1189.18 49.1954 1188.52 50.7768C1189.84 50.9876 1190.99 51.4093 1191.9 51.8837C1196.01 52.7271 1198.81 55.3099 1196.18 57.5238C1197.33 58.209 1198.07 59.1051 1198.23 60.0012C1200.95 61.0027 1202.19 63.0057 1201.12 64.6924C1201.86 65.3777 1202.1 66.221 1201.94 67.0117C1203.09 67.5915 1203.91 68.3295 1204.33 69.1201C1207.62 69.4364 1209.76 70.9123 1210.25 72.5463L1210.09 72.4409Z" fill="#EBE2D2"/>
<path d="M886.824 -6.09149C891.763 -1.29481 895.714 3.71272 899.418 8.77296C903.04 8.93109 906.25 10.0907 907.32 12.041C909.131 15.3091 914.399 17.7865 921.395 18.1555C924.523 18.3136 927.815 19.1043 929.297 20.5802C930.861 20.6856 932.425 20.791 934.153 20.9492C937.364 21.2127 939.257 22.4251 940.08 23.901C941.068 24.1645 941.891 24.4808 942.549 24.9025C945.348 24.4281 948.476 24.3227 951.357 24.7443C951.439 24.7443 951.521 24.797 951.686 24.797C957.859 24.3754 965.103 25.3769 972.758 27.2745C966.667 17.523 959.835 7.92959 951.851 -1.50565L878.593 -14.1562C879.91 -12.5749 881.721 -11.2044 884.355 -9.99209C886.659 -8.99059 887.318 -7.46198 886.824 -6.09149Z" fill="#EBE2D2"/>
<path opacity="0.68" d="M355.843 16.2069C363.251 18.7898 365.144 23.2175 361.275 26.6964C362.839 27.2235 364.486 27.7506 366.049 28.3831C372.141 30.7024 374.692 35.0774 372.305 38.4509C375.186 39.8214 377.902 41.2973 380.536 42.9313C383.006 44.4599 384.158 46.094 384.487 47.728C386.216 47.9916 387.944 48.2024 389.673 48.466C391.484 48.7295 392.966 49.0985 394.365 49.5729C399.139 49.362 404.16 49.6256 409.181 50.2054C419.141 44.3545 429.183 38.609 439.637 33.0217C447.621 28.7521 455.852 23.9027 464.906 19.7386L458.239 19.6331L336.088 7.24609C335.841 8.40573 335.512 9.56537 334.936 10.7777C342.097 12.3063 349.011 13.8877 355.76 16.2596L355.843 16.2069Z" fill="#EBE2D2"/>
<path opacity="0.46" d="M1635.12 62.6525L1754.31 32.291L1653.97 28.1269L1638.58 21.8543C1638.58 21.8543 1638.58 21.8543 1638.58 21.8016L1636.44 21.0109L1559.97 -7.03125C1549.68 17.3212 1546.8 36.4552 1571.58 36.8242C1588.54 35.3483 1604.59 43.044 1616.36 50.3708C1616.36 50.3708 1616.36 50.3181 1616.36 50.2654C1621.05 54.535 1635.04 62.5997 1635.04 62.5997L1635.12 62.6525Z" fill="#EBE2D2"/>
<path d="M1896.56 200.341C1826.51 165.078 1718.43 158.225 1596.53 159.28C1061.34 163.866 526.143 168.451 -8.96798 173.037C-42.469 173.301 -87.2467 180.469 -86.7529 201.923C-86.5059 213.256 -72.3484 222.058 -62.471 231.494C-1.72464 289.423 -102.474 365.59 -85.6828 434.536C-70.2904 497.841 -126.921 726.606 -98.5237 857.54C-97.1244 864.129 -73.6653 1077.92 -73.6653 1082.72C-73.6653 1248.13 -70.5374 1614.78 -70.5374 1614.78C-20.7386 1614.78 1375.77 1612.94 1938.37 1605.09C1958.87 1182.82 1972.61 760.447 1979.69 337.969C1980.84 269.92 1949.65 227.013 1896.64 200.341H1896.56Z" fill="#FAF4EA"/>
</g>
<defs>
<clipPath id="clip0_483_134">
<rect width="1548.82" height="2081" fill="white" transform="matrix(0 1 -1 0 2081 0.546875)"/>
</clipPath>
</defs>
</svg>
